<?xml version="1.0" encoding="UTF-8"?>
<svg id="Header" xmlns="http://www.w3.org/2000/svg" version="1.1" xmlns:xlink="http://www.w3.org/1999/xlink" viewBox="0 0 1920 317.8">
  <!-- Generator: Adobe Illustrator 30.1.0, SVG Export Plug-In . SVG Version: 2.1.1 Build 136)  -->
  <defs>
    <style>
      .st0 {
        stroke: #fff;
        stroke-opacity: .2;
      }

      .st0, .st1, .st2, .st3 {
        fill: none;
      }

      .st0, .st2 {
        stroke-width: 4.3px;
      }

      .st4 {
        fill: #fff;
      }

      .st5 {
        fill: #353549;
      }

      .st6 {
        fill: #3535f9;
      }

      .st7 {
        fill: #1b1d2c;
      }

      .st8 {
        fill: #aeb4ba;
      }

      .st9 {
        fill: #4a4afa;
      }

      .st2 {
        stroke: url(#linear-gradient);
      }

      .st10 {
        fill: #ecedee;
      }

      .st3 {
        stroke: #ecedee;
        stroke-linecap: round;
        stroke-linejoin: round;
        stroke-width: 3px;
      }

      .st11 {
        clip-path: url(#clippath);
      }
    </style>
    <clipPath id="clippath">
      <rect class="st1" x="728.3" y="45.6" width="456" height="4.8" rx="2.4" ry="2.4"/>
    </clipPath>
    <linearGradient id="linear-gradient" x1="96.5" y1="985.6" x2="1823.3" y2="985.6" gradientTransform="translate(0 1081) scale(1 -1)" gradientUnits="userSpaceOnUse">
      <stop offset="0" stop-color="#474961" stop-opacity="0"/>
      <stop offset=".5" stop-color="#474961"/>
      <stop offset="1" stop-color="#474961" stop-opacity="0"/>
    </linearGradient>
  </defs>
  <path class="st6" d="M248,37.6c-1.1-.5-2.3-1-3.6-1.2-.2,0-.4-.3-.4-.5l-.7-6.5c0-.3-.3-.5-.6-.5s-.4,0-.5.3l-6.4,12.5s0,.1,0,.2c0,.2.2.4.4.4s.1,0,.2,0c0,0,0,0,0,0,.8-.4,1.6-.7,2.4-.8,0,0,0,0,.1,0,.3,0,.6.3.6.6l-.5,8.9c0,.4.3.6.6.6s.4,0,.5-.3l8-12.7c.2-.3,0-.7-.2-.8Z"/>
  <path class="st4" d="M250.5,39.1c0,.2-2.7,4.4-2.7,4.4h0c2.3,2,3.8,4.9,3.8,8.1,0,5.8-4.7,10.5-10.5,10.5s-10.5-4.7-10.5-10.5,1.4-5.9,3.5-7.9c-.5-.5-.8-1.2-.8-1.9s0-.7.2-1h0c0-.1,0-.2,0-.2h0c0,0,1.8-3.5,1.8-3.5-5.8,2.3-10,7.9-10,14.6s7,15.6,15.6,15.6,15.6-7,15.6-15.6-2.4-9.6-6.2-12.5Z"/>
  <g class="st11">
    <g>
      <rect class="st5" x="728.3" y="45.6" width="456" height="4.8" rx="2.4" ry="2.4"/>
      <rect class="st9" x="728.3" y="45.6" width="152" height="4.8" rx="2.4" ry="2.4"/>
    </g>
  </g>
  <g>
    <rect class="st7" x="1655.9" y="28.8" width="38.4" height="38.4" rx="12" ry="12"/>
    <path class="st3" d="M1681.1,42l-12,12M1669.1,42l12,12"/>
    <rect class="st0" x="1656.5" y="29.4" width="37.2" height="37.2" rx="11.4" ry="11.4"/>
  </g>
  <line class="st2" x1="1823.3" y1="95.4" x2="96.5" y2="95.4"/>
  <path class="st8" d="M823.2,313.6c-2.8,0-4.8-1.7-4.8-4.1h2.7c0,.9.9,1.7,2.2,1.7s2-.7,2-1.6-.5-1.2-1.7-1.6l-1.6-.5c-2.9-.8-3.4-2.5-3.4-3.7,0-2.4,2-4,4.6-4s4.4,1.5,4.4,4h-2.7c0-.9-.7-1.7-1.8-1.7s-1.8.7-1.8,1.6,0,1,1.5,1.4l1.5.4c2,.6,3.7,1.6,3.7,3.9s-2.2,4.1-4.7,4.1ZM838.9,308.7c0,.3,0,.6,0,1h-6.7c.3,1.1,1.1,1.7,2.3,1.7s1.8-.4,2.4-1.1l1.5,1.5c-.8,1.1-2.4,1.8-4,1.8-2.8,0-4.8-1.9-4.8-4.7s2.2-4.7,4.8-4.7,4.7,1.8,4.7,4.6ZM832.1,308.1h4.3c0-1.1-.9-1.7-2.1-1.7s-1.9.5-2.2,1.7ZM843.4,313.4h-2.5v-13.8h2.5v13.8ZM854.8,308.7c0,.3,0,.6,0,1h-6.7c.3,1.1,1.1,1.7,2.3,1.7s1.8-.4,2.4-1.1l1.5,1.5c-.8,1.1-2.4,1.8-4,1.8-2.8,0-4.8-1.9-4.8-4.7s2.2-4.7,4.8-4.7,4.7,1.8,4.7,4.6ZM848,308.1h4.3c0-1.1-.9-1.7-2.1-1.7s-1.9.5-2.2,1.7ZM861.1,313.6c-2.6,0-4.9-1.9-4.9-4.7s2.3-4.7,4.9-4.7,2.9.8,3.8,1.9l-1.9,1.3c-.4-.6-1.2-.9-1.9-.9-1.4,0-2.4,1-2.4,2.3s1,2.4,2.4,2.4,1.5-.3,1.9-.9l1.9,1.3c-.8,1.2-2.1,1.9-3.8,1.9ZM870.1,304.4h1.9v2h-1.9v7h-2.5v-7h-1.6v-2h1.6v-3.3h2.5v3.3ZM882.7,305.2l3.3-5h3.2l-5.1,7.3v6h-2.7v-6l-5.1-7.2h3.2l3.3,5ZM892.2,313.6c-2.6,0-4.8-1.9-4.8-4.7s2.3-4.7,4.8-4.7,4.8,1.9,4.8,4.7-2.3,4.7-4.8,4.7ZM892.2,311.3c1.2,0,2.3-1,2.3-2.4s-1-2.4-2.3-2.4-2.3,1-2.3,2.4,1,2.4,2.3,2.4ZM905.1,309.2v-4.7h2.5v9h-2.5v-1.5c-.4,1.2-1.8,1.7-2.7,1.7-2.3,0-3.6-1.6-3.6-4.3v-4.9h2.5v4.8c0,1.4.8,2.1,1.7,2.1s2-.5,2-2.1ZM915.3,304.2c.5,0,1,0,1.4.3l-.6,2.4c-.5-.3-1-.3-1.3-.3-1.3,0-2.2,1.2-2.2,3.8v3.1h-2.5v-9h2.5v1.9c.5-1.5,1.5-2.2,2.6-2.2ZM922.5,300.1h5.4c3,0,4.3,2.1,4.3,4.3s-1.3,4.3-4.3,4.3h-2.7v4.6h-2.7v-13.2ZM925.1,306.4h2.6c1.3,0,1.8-1,1.8-1.9s-.5-2-1.7-2h-2.6v3.9ZM939,304.2c.5,0,1,0,1.4.3l-.6,2.4c-.5-.3-1-.3-1.3-.3-1.3,0-2.2,1.2-2.2,3.8v3.1h-2.5v-9h2.5v1.9c.5-1.5,1.5-2.2,2.6-2.2ZM943,302.8c-.9,0-1.6-.7-1.6-1.5s.7-1.5,1.6-1.5,1.6.7,1.6,1.5-.7,1.5-1.6,1.5ZM944.2,313.4h-2.5v-9h2.5v9ZM957.7,304.2c2.2,0,3.4,1.6,3.4,4.3v4.9h-2.5v-4.8c0-1.4-.7-2-1.6-2-1.1,0-1.8.7-1.8,2.4v4.4h-2.5v-4.8c0-1.4-.7-2-1.6-2s-1.8.5-1.8,2.1v4.7h-2.5v-9h2.5v1.4c.4-1.1,1.6-1.7,2.5-1.7s2.3.6,2.9,1.8c.7-1.3,2.1-1.8,3-1.8ZM970.3,305.6v-1.2h2.5v9h-2.5v-1.3c-.6.9-1.7,1.5-3,1.5-2.5,0-4.3-1.9-4.3-4.7s1.8-4.7,4.4-4.7,2.3.5,2.9,1.4ZM967.9,311.3c1.3,0,2.3-1.1,2.3-2.4s-1.1-2.4-2.3-2.4-2.3,1.1-2.3,2.4,1,2.4,2.3,2.4ZM980.4,304.2c.5,0,1,0,1.4.3l-.6,2.4c-.5-.3-1-.3-1.3-.3-1.3,0-2.2,1.2-2.2,3.8v3.1h-2.5v-9h2.5v1.9c.5-1.5,1.5-2.2,2.6-2.2ZM986.9,309.6l2.1-5.2h2.7l-5.5,13.4h-2.7l2.1-5.2-3.6-8.1h2.8l2.1,5.2ZM1003.7,313.6c-3.7,0-6.7-3.1-6.7-6.9s3-6.8,6.7-6.8,4.2,1.1,5.4,2.7l-2,1.5c-.8-1.1-1.9-1.7-3.3-1.7-2.4,0-4.1,2-4.1,4.3s1.7,4.3,4.1,4.3,2.5-.7,3.3-1.7l2,1.5c-1.2,1.7-3.1,2.7-5.4,2.7ZM1015,313.6c-2.6,0-4.8-1.9-4.8-4.7s2.3-4.7,4.8-4.7,4.8,1.9,4.8,4.7-2.3,4.7-4.8,4.7ZM1015,311.3c1.2,0,2.3-1,2.3-2.4s-1-2.4-2.3-2.4-2.3,1-2.3,2.4,1,2.4,2.3,2.4ZM1024.3,313.4h-2.5v-13.8h2.5v13.8ZM1031.1,313.6c-2.6,0-4.8-1.9-4.8-4.7s2.3-4.7,4.8-4.7,4.8,1.9,4.8,4.7-2.3,4.7-4.8,4.7ZM1031.1,311.3c1.2,0,2.3-1,2.3-2.4s-1-2.4-2.3-2.4-2.3,1-2.3,2.4,1,2.4,2.3,2.4ZM1043,304.2c.5,0,1,0,1.4.3l-.6,2.4c-.5-.3-1-.3-1.3-.3-1.3,0-2.2,1.2-2.2,3.8v3.1h-2.5v-9h2.5v1.9c.5-1.5,1.5-2.2,2.6-2.2ZM1057.5,306.3c1.7.3,2.5,1.8,2.5,3.3s-1.2,3.8-4.2,3.8h-5.6v-13.2h5.2c2.4,0,3.9,1.4,3.9,3.4s-.4,2.3-1.8,2.7ZM1056.6,303.9c0-.8-.4-1.4-1.4-1.4h-2.4v2.9h2.4c.8,0,1.4-.6,1.4-1.5ZM1052.9,311h2.6c1.2,0,1.9-.8,1.9-1.7s-.6-1.7-1.8-1.7h-2.6v3.4ZM1071,308.7c0,.3,0,.6,0,1h-6.7c.3,1.1,1.1,1.7,2.3,1.7s1.8-.4,2.4-1.1l1.5,1.5c-.8,1.1-2.4,1.8-4,1.8-2.8,0-4.8-1.9-4.8-4.7s2.2-4.7,4.8-4.7,4.7,1.8,4.7,4.6ZM1064.2,308.1h4.3c0-1.1-.9-1.7-2.1-1.7s-1.9.5-2.2,1.7ZM1075.4,313.4h-2.5v-13.8h2.5v13.8ZM1082.2,313.6c-2.6,0-4.8-1.9-4.8-4.7s2.3-4.7,4.8-4.7,4.8,1.9,4.8,4.7-2.3,4.7-4.8,4.7ZM1082.2,311.3c1.2,0,2.3-1,2.3-2.4s-1-2.4-2.3-2.4-2.3,1-2.3,2.4,1,2.4,2.3,2.4ZM1097.7,309.9l1.7-5.5h2.7l-3.2,9h-2.1l-1.8-5.8-1.8,5.8h-2.2l-3.3-9h2.7l1.7,5.5,1.7-5.5h2.1l1.7,5.5Z"/>
  <path class="st10" d="M609.7,246.3v-11.2h4.7v26.5h-4.7v-11.1h-11v11.1h-4.7v-26.5h4.7v11.2h11ZM637.4,252.4c0,.5,0,1.1,0,1.7h-13.9c.5,2.5,2.4,3.8,5.1,3.8s3.8-.8,4.8-2.3l3,2.3c-1.7,2.6-4.8,4.1-8.1,4.1-5.3,0-9.4-3.8-9.4-9.4s4.3-9.4,9.4-9.4,9.1,3.6,9.1,9.3ZM623.4,251.1h9.6c-.3-2.5-2.2-3.9-4.7-3.9s-4.3,1.2-4.9,3.9ZM651.1,243.2c1.1,0,2.2.2,2.9.6l-.9,4.2c-1-.5-2-.7-2.6-.7-2.9,0-4.5,2.9-4.5,7.9v6.3h-4.5v-17.9h4.5v3.8c1-3,2.9-4.3,5.1-4.3ZM673.9,252.4c0,.5,0,1.1,0,1.7h-13.9c.5,2.5,2.4,3.8,5.1,3.8s3.8-.8,4.8-2.3l3,2.3c-1.7,2.6-4.8,4.1-8.1,4.1-5.3,0-9.4-3.8-9.4-9.4s4.3-9.4,9.4-9.4,9.1,3.6,9.1,9.3ZM659.9,251.1h9.6c-.3-2.5-2.2-3.9-4.7-3.9s-4.3,1.2-4.9,3.9ZM701.1,246.1v-2.5h4.5v17.9h-4.5v-2.8c-1.2,2-3.6,3.3-6.1,3.3-4.8,0-8.6-3.9-8.6-9.4s3.7-9.4,8.8-9.4,4.8,1.1,6,3ZM695.9,257.9c2.8,0,5.1-2.3,5.1-5.3s-2.5-5.3-5.2-5.3-5.1,2.4-5.1,5.3,2.2,5.3,5.1,5.3ZM720.5,243.2c1.1,0,2.2.2,2.9.6l-.9,4.2c-1-.5-2-.7-2.6-.7-2.9,0-4.5,2.9-4.5,7.9v6.3h-4.5v-17.9h4.5v3.8c1-3,2.9-4.3,5.1-4.3ZM743.2,252.4c0,.5,0,1.1,0,1.7h-13.9c.5,2.5,2.4,3.8,5.1,3.8s3.8-.8,4.8-2.3l3,2.3c-1.7,2.6-4.8,4.1-8.1,4.1-5.3,0-9.4-3.8-9.4-9.4s4.3-9.4,9.4-9.4,9.1,3.6,9.1,9.3ZM729.3,251.1h9.6c-.3-2.5-2.2-3.9-4.7-3.9s-4.3,1.2-4.9,3.9ZM762.8,243.6h3.8v3.5h-3.8v14.4h-4.5v-14.4h-3.2v-3.5h3.2v-6.6h4.5v6.6ZM780,243.2c4.6,0,7.2,3.1,7.2,8.3v10.1h-4.5v-9.8c0-2.9-1.7-4.4-3.7-4.4s-4.6,1.2-4.6,4.7v9.5h-4.5v-27.7h4.5v12.5c.9-2.2,3.8-3.2,5.6-3.2ZM809.7,252.4c0,.5,0,1.1,0,1.7h-13.9c.5,2.5,2.4,3.8,5.1,3.8s3.8-.8,4.8-2.3l3,2.3c-1.7,2.6-4.8,4.1-8.1,4.1-5.3,0-9.4-3.8-9.4-9.4s4.3-9.4,9.4-9.4,9.1,3.6,9.1,9.3ZM795.8,251.1h9.6c-.3-2.5-2.2-3.9-4.7-3.9s-4.3,1.2-4.9,3.9ZM835.7,262c-7.5,0-13.4-6.2-13.4-13.7s6-13.7,13.4-13.7,8.1,2,10.5,5.1l-3.5,2.7c-1.6-2.1-4-3.5-6.9-3.5-5,0-8.8,4.3-8.8,9.3s3.7,9.3,8.8,9.3,5.3-1.3,6.9-3.5l3.5,2.7c-2.4,3.1-6.2,5.1-10.5,5.1ZM858.1,262c-5.1,0-9.5-3.8-9.5-9.4s4.4-9.4,9.5-9.4,9.6,3.7,9.6,9.4-4.5,9.4-9.6,9.4ZM858.1,257.9c2.8,0,5.1-2.2,5.1-5.3s-2.3-5.3-5.1-5.3-5,2.2-5,5.3,2.3,5.3,5,5.3ZM876.3,261.6h-4.5v-27.7h4.5v27.7ZM890,262c-5.1,0-9.5-3.8-9.5-9.4s4.4-9.4,9.5-9.4,9.6,3.7,9.6,9.4-4.5,9.4-9.6,9.4ZM890,257.9c2.8,0,5.1-2.2,5.1-5.3s-2.3-5.3-5.1-5.3-5,2.2-5,5.3,2.3,5.3,5,5.3ZM913.4,243.2c1.1,0,2.2.2,2.9.6l-.9,4.2c-1-.5-2-.7-2.6-.7-2.9,0-4.5,2.9-4.5,7.9v6.3h-4.5v-17.9h4.5v3.8c1-3,2.9-4.3,5.1-4.3ZM925,262c-3.6,0-7.1-2.2-7.2-6h4.2c0,1.2,1.1,2.4,3,2.4s2.9-.9,2.9-2-.8-1.5-2.1-1.8l-2.4-.6c-4-1.1-5.1-3.2-5.1-5.5s2.8-5.3,6.7-5.3,6.8,1.6,6.8,5.6h-4.3c0-1.2-1.1-2-2.4-2s-2.3.8-2.3,1.9.9,1.5,1.9,1.7l2.9.8c4,1,4.8,3.6,4.8,5.2,0,3.6-3.6,5.6-7.3,5.6ZM963.4,255.2l3.8-11.6h4.8l-6.5,17.9h-3.8l-4.2-12.2-4,12.2h-3.7l-6.6-17.9h4.8l3.8,11.6,3.8-11.6h4l3.8,11.6ZM992.2,252.4c0,.5,0,1.1,0,1.7h-13.9c.5,2.5,2.4,3.8,5.1,3.8s3.8-.8,4.8-2.3l3,2.3c-1.7,2.6-4.8,4.1-8.1,4.1-5.3,0-9.4-3.8-9.4-9.4s4.3-9.4,9.4-9.4,9.1,3.6,9.1,9.3ZM978.2,251.1h9.6c-.3-2.5-2.2-3.9-4.7-3.9s-4.3,1.2-4.9,3.9ZM1022.5,235.1v4.2h-11.4v7.2h9v4.2h-9v10.9h-4.7v-26.5h16ZM1033.2,262c-5.1,0-9.5-3.8-9.5-9.4s4.4-9.4,9.5-9.4,9.6,3.7,9.6,9.4-4.5,9.4-9.6,9.4ZM1033.2,257.9c2.8,0,5.1-2.2,5.1-5.3s-2.3-5.3-5.1-5.3-5,2.2-5,5.3,2.3,5.3,5,5.3ZM1059.4,253.2v-9.6h4.5v17.9h-4.5v-2.8c-.9,2.3-3.8,3.3-5.6,3.3-4.6,0-7.2-3.1-7.2-8.3v-10.1h4.5v9.9c0,2.9,1.7,4.4,3.7,4.4s4.6-1.2,4.6-4.6ZM1079.2,243.2c4.6,0,7.2,3.1,7.2,8.3v10.1h-4.5v-9.8c0-2.9-1.7-4.4-3.7-4.4s-4.6,1.2-4.6,4.6v9.5h-4.5v-17.9h4.5v2.8c.9-2.3,3.7-3.3,5.6-3.3ZM1105.2,246v-12.1h4.5v27.7h-4.5v-2.4c-1.2,1.9-3.8,2.8-6,2.8-4.7,0-8.8-3.7-8.8-9.4s4.1-9.4,8.8-9.4,4.8.9,6,2.8ZM1099.9,257.9c2.7,0,5.2-2.2,5.2-5.3s-2.6-5.2-5.2-5.2-5,2.2-5,5.2,2.3,5.3,5,5.3ZM1132.7,262c-5.1,0-9.5-3.8-9.5-9.4s4.4-9.4,9.5-9.4,9.6,3.7,9.6,9.4-4.5,9.4-9.6,9.4ZM1132.7,257.9c2.8,0,5.1-2.2,5.1-5.3s-2.3-5.3-5.1-5.3-5,2.2-5,5.3,2.3,5.3,5,5.3ZM1156.5,243.2c4.6,0,7.2,3.1,7.2,8.3v10.1h-4.5v-9.8c0-2.9-1.7-4.4-3.7-4.4s-4.6,1.2-4.6,4.6v9.5h-4.5v-17.9h4.5v2.8c.9-2.3,3.7-3.3,5.6-3.3ZM1186.7,245.4l7-10.3h5.6l-10.2,14.4v12h-4.7v-12.1l-10.1-14.4h5.5l6.9,10.3ZM1205.6,262c-5.1,0-9.5-3.8-9.5-9.4s4.4-9.4,9.5-9.4,9.6,3.7,9.6,9.4-4.5,9.4-9.6,9.4ZM1205.6,257.9c2.8,0,5.1-2.2,5.1-5.3s-2.3-5.3-5.1-5.3-5,2.2-5,5.3,2.3,5.3,5,5.3ZM1231.9,253.2v-9.6h4.5v17.9h-4.5v-2.8c-.9,2.3-3.8,3.3-5.6,3.3-4.6,0-7.2-3.1-7.2-8.3v-10.1h4.5v9.9c0,2.9,1.7,4.4,3.7,4.4s4.6-1.2,4.6-4.6ZM1251.3,243.2c1.1,0,2.2.2,2.9.6l-.9,4.2c-1-.5-2-.7-2.6-.7-2.9,0-4.5,2.9-4.5,7.9v6.3h-4.5v-17.9h4.5v3.8c1-3,2.9-4.3,5.1-4.3ZM1274.2,262c-5.6,0-9.4-3.6-9.4-8.1h4.6c0,2.1,2,4,4.9,4s4.4-1.7,4.4-3.7-1.6-2.9-3.8-3.5l-3.3-.9c-5.7-1.5-6.7-4.9-6.7-7.2,0-4.7,4.1-7.9,9-7.9s8.6,3,8.6,7.9h-4.6c0-2.2-1.7-3.8-4.1-3.8s-4.1,1.5-4.1,3.6.2,2.3,3.3,3.1l3.2.9c4.1,1.2,7.3,3.3,7.3,7.5s-4,8.1-9.2,8.1ZM1289.8,240c-1.6,0-2.9-1.2-2.9-2.7s1.3-2.7,2.9-2.7,2.9,1.2,2.9,2.7-1.3,2.7-2.9,2.7ZM1292.1,261.6h-4.5v-17.9h4.5v17.9ZM1303.4,243.6h3.8v3.5h-3.8v14.4h-4.5v-14.4h-3.2v-3.5h3.2v-6.6h4.5v6.6ZM1327.7,252.4c0,.5,0,1.1,0,1.7h-13.9c.5,2.5,2.4,3.8,5.1,3.8s3.8-.8,4.8-2.3l3,2.3c-1.6,2.6-4.8,4.1-8.1,4.1-5.3,0-9.4-3.8-9.4-9.4s4.3-9.4,9.4-9.4,9.1,3.6,9.1,9.3ZM1313.7,251.1h9.6c-.3-2.5-2.2-3.9-4.7-3.9s-4.3,1.2-4.9,3.9Z"/>
</svg>