<?xml version="1.0" encoding="UTF-8"?>
<svg xmlns="http://www.w3.org/2000/svg" xmlns:xlink="http://www.w3.org/1999/xlink" viewBox="0 0 1920 1081.53">
  <defs>
    <style>
      .cls-1 {
        stroke-width: 8.54px;
      }

      .cls-1, .cls-2, .cls-3, .cls-4, .cls-5, .cls-6, .cls-7, .cls-8, .cls-9 {
        fill: none;
      }

      .cls-1, .cls-5, .cls-6, .cls-9 {
        stroke: #ecedee;
        stroke-linecap: round;
        stroke-linejoin: round;
      }

      .cls-2 {
        stroke: rgba(255, 255, 255, .16);
      }

      .cls-2, .cls-3, .cls-7, .cls-8 {
        stroke-width: 4.27px;
      }

      .cls-10, .cls-11 {
        fill: #fff;
      }

      .cls-12 {
        mask: url(#mask);
      }

      .cls-13 {
        fill: #353549;
      }

      .cls-3 {
        stroke: rgba(255, 255, 255, .24);
      }

      .cls-14 {
        fill: #f5990d;
      }

      .cls-15 {
        fill: #3535f9;
      }

      .cls-11, .cls-16 {
        fill-rule: evenodd;
      }

      .cls-17 {
        fill: #1b1d2c;
      }

      .cls-5, .cls-6 {
        stroke-width: 6.24px;
      }

      .cls-6, .cls-18 {
        opacity: .5;
      }

      .cls-7 {
        stroke: #0707f3;
      }

      .cls-19 {
        fill: #aeb4ba;
      }

      .cls-20 {
        fill: #4a4afa;
      }

      .cls-21 {
        fill: url(#linear-gradient-3);
        fill-opacity: .5;
      }

      .cls-22 {
        fill: #df142d;
      }

      .cls-8 {
        stroke: url(#linear-gradient-2);
      }

      .cls-23 {
        fill: #ecedee;
      }

      .cls-9 {
        stroke-width: 6.41px;
      }

      .cls-24 {
        fill: url(#linear-gradient);
      }

      .cls-25 {
        clip-path: url(#clippath);
      }
    </style>
    <linearGradient id="linear-gradient" x1="960" y1="1049.28" x2="960" y2="-97.78" gradientTransform="translate(0 1084.07) scale(1 -1)" gradientUnits="userSpaceOnUse">
      <stop offset="0" stop-color="#01030c"/>
      <stop offset=".77" stop-color="#060b26"/>
    </linearGradient>
    <clipPath id="clippath">
      <rect class="cls-4" x="728.3" y="47.14" width="456" height="4.8" rx="2.4" ry="2.4"/>
    </clipPath>
    <linearGradient id="linear-gradient-2" x1="94.36" y1="1034.53" x2="1825.43" y2="1034.53" gradientTransform="translate(0 1084.07) scale(1 -1)" gradientUnits="userSpaceOnUse">
      <stop offset="0" stop-color="#474961" stop-opacity="0"/>
      <stop offset=".5" stop-color="#474961"/>
      <stop offset="1" stop-color="#474961" stop-opacity="0"/>
    </linearGradient>
    <mask id="mask" x="708.89" y="440.73" width="19.67" height="24.45" maskUnits="userSpaceOnUse">
      <g id="path-12-outside-1_1133_11556" data-name="path-12-outside-1 1133 11556">
        <rect class="cls-10" x="708.89" y="440.73" width="19.67" height="24.45"/>
        <path class="cls-16" d="M715.1,455.34l-1.26-1.62c-.73-1.11-2.27-1.51-3.46-.91l.28-.14c-.29.15-.43.53-.31.84l1.47,3.81c.23.6.83,1.46,1.32,1.89,0,0,3.16,2.45,3.16,3.37v1.16h4.8l1.2-2.4,1.2,2.4h1.2v-1.16c0-.92,1.61-3.82,1.61-3.82.33-.56.79-1.55.79-2.21v-4.84c-.02-1.07-1.11-1.94-2.23-1.94-.56,0-1.02.44-1.02.97v.39c0-1.07-.91-1.94-2.03-1.94-.56,0-1.02.44-1.02.97v.39c0-1.07-.91-1.94-2.04-1.94-.56,0-1.26.44-1.26.97v.39c0-.17.04-.31,0-.42v-6.2c-.04-.68-.73-1.2-1.4-1.2s-1,.54-1,1.2v12ZM718.7,454.14h1.2v4.8h-1.2v-4.8ZM721.1,454.14h1.2v4.8h-1.2v-4.8ZM723.5,454.14h1.2v4.8h-1.2v-4.8Z"/>
      </g>
    </mask>
    <linearGradient id="linear-gradient-3" x1="959.9" y1="372.13" x2="959.9" y2="515.21" gradientTransform="translate(0 1084.07) scale(1 -1)" gradientUnits="userSpaceOnUse">
      <stop offset="0" stop-color="#d0d1e0" stop-opacity="0"/>
      <stop offset=".5" stop-color="#a6a8be"/>
      <stop offset="1" stop-color="#d0d1e0" stop-opacity="0"/>
    </linearGradient>
  </defs>
  <g id="bg">
    <rect class="cls-24" y="1.53" width="1920" height="1080"/>
  </g>
  <g id="red">
    <path class="cls-22" d="M722.3,362.34h0c39.43,0,71.4,31.97,71.4,71.4h0c0,39.43-31.97,71.4-71.4,71.4h0c-39.43,0-71.4-31.97-71.4-71.4h0c0-39.43,31.97-71.4,71.4-71.4Z"/>
  </g>
  <g id="selected">
    <path class="cls-7" d="M722.3,362.34h0c39.43,0,71.4,31.97,71.4,71.4h0c0,39.43-31.97,71.4-71.4,71.4h0c-39.43,0-71.4-31.97-71.4-71.4h0c0-39.43,31.97-71.4,71.4-71.4Z"/>
  </g>
  <g id="Site-up">
    <rect class="cls-4" x="95.9" y="1.53" width="1728" height="1080"/>
    <path class="cls-15" d="M247.95,39.09c-1.12-.55-2.31-.97-3.56-1.24-.24-.05-.42-.26-.44-.5l-.7-6.5c-.04-.33-.3-.51-.58-.51-.2,0-.4.1-.51.31l-6.38,12.49s-.04.12-.04.18c0,.25.2.44.44.44.06,0,.11-.01.17-.03.02-.01.04-.02.07-.04.75-.38,1.56-.66,2.4-.85.04-.01.08-.02.13-.02.32,0,.59.27.58.6l-.45,8.85c-.02.37.28.61.58.61.18,0,.36-.08.48-.27l8.04-12.72c.18-.28.08-.67-.23-.82Z"/>
    <path class="cls-10" d="M250.47,40.64c-.07.19-2.68,4.35-2.68,4.35l-.02.03c2.33,1.93,3.82,4.84,3.82,8.1,0,5.79-4.71,10.51-10.5,10.51s-10.49-4.72-10.49-10.51c0-3.13,1.37-5.94,3.54-7.86-.47-.51-.76-1.18-.76-1.93,0-.36.07-.71.2-1.04l.04-.11.05-.1.04-.08,1.76-3.44c-5.83,2.26-9.97,7.94-9.97,14.56,0,8.61,7,15.62,15.6,15.62s15.6-7.01,15.6-15.62c0-5.1-2.45-9.63-6.23-12.48Z"/>
    <g class="cls-25">
      <g>
        <rect class="cls-13" x="728.3" y="47.14" width="456" height="4.8" rx="2.4" ry="2.4"/>
        <rect class="cls-20" x="728.3" y="47.14" width="152" height="4.8" rx="2.4" ry="2.4"/>
      </g>
    </g>
    <g>
      <rect class="cls-17" x="1655.9" y="30.34" width="38.4" height="38.4" rx="12" ry="12"/>
      <path class="cls-1" d="M1681.1,43.54l-12,12M1669.1,43.54l12,12"/>
      <rect class="cls-3" x="1656.5" y="30.94" width="37.2" height="37.2" rx="11.4" ry="11.4"/>
    </g>
    <rect class="cls-8" x="96.5" y="2.13" width="1726.8" height="94.8"/>
  </g>
  <g id="Select">
    <path class="cls-19" d="M823.21,315.14c-2.82,0-4.76-1.75-4.76-4.07h2.67c.02.94.94,1.73,2.17,1.73s1.98-.65,1.98-1.59c0-.73-.54-1.25-1.67-1.59l-1.61-.46c-2.9-.77-3.42-2.52-3.42-3.7,0-2.36,2.03-3.99,4.57-3.99s4.41,1.51,4.41,4.03h-2.67c0-.94-.65-1.67-1.81-1.67-1.04,0-1.82.69-1.82,1.57,0,.33.1,1,1.48,1.4l1.48.42c2,.6,3.74,1.61,3.74,3.86,0,2.63-2.25,4.07-4.74,4.07ZM838.92,310.28c0,.25-.02.56-.06.96h-6.74c.27,1.06,1.11,1.67,2.3,1.67.92,0,1.81-.42,2.36-1.05l1.46,1.48c-.85,1.13-2.4,1.8-3.97,1.8-2.77,0-4.78-1.94-4.78-4.7s2.21-4.72,4.76-4.72,4.67,1.82,4.67,4.57ZM832.12,309.61h4.26c-.08-1.05-.94-1.73-2.07-1.73-1.04,0-1.92.52-2.19,1.73ZM843.38,314.91h-2.52v-13.84h2.52v13.84ZM854.8,310.28c0,.25-.02.56-.06.96h-6.74c.27,1.06,1.11,1.67,2.3,1.67.92,0,1.81-.42,2.36-1.05l1.46,1.48c-.85,1.13-2.4,1.8-3.97,1.8-2.77,0-4.78-1.94-4.78-4.7s2.21-4.72,4.76-4.72,4.67,1.82,4.67,4.57ZM848,309.61h4.26c-.08-1.05-.94-1.73-2.07-1.73-1.03,0-1.92.52-2.19,1.73ZM861.11,315.14c-2.61,0-4.92-1.9-4.92-4.74s2.3-4.68,4.92-4.68c1.63,0,2.94.75,3.78,1.92l-1.9,1.32c-.4-.56-1.15-.9-1.86-.9-1.42,0-2.38,1.04-2.38,2.34s.96,2.4,2.38,2.4c.71,0,1.46-.35,1.86-.9l1.9,1.33c-.85,1.17-2.15,1.92-3.78,1.92ZM870.07,305.94h1.9v1.96h-1.9v7.01h-2.52v-7.01h-1.63v-1.96h1.63v-3.26h2.52v3.26ZM882.65,306.71l3.32-5.03h3.17l-5.15,7.26v5.97h-2.67v-6.01l-5.13-7.22h3.19l3.26,5.03ZM892.19,315.14c-2.55,0-4.82-1.88-4.82-4.7s2.27-4.72,4.82-4.72,4.82,1.88,4.82,4.72-2.27,4.7-4.82,4.7ZM892.19,312.8c1.25,0,2.27-.98,2.27-2.36s-1.02-2.38-2.27-2.38-2.27.98-2.27,2.38,1.02,2.36,2.27,2.36ZM905.12,310.69v-4.74h2.52v8.97h-2.52v-1.46c-.38,1.17-1.8,1.69-2.69,1.69-2.34,0-3.57-1.57-3.55-4.26v-4.93h2.52v4.8c0,1.4.85,2.05,1.71,2.05s2.01-.5,2.01-2.11ZM915.29,305.71c.48,0,1.02.08,1.42.29l-.58,2.4c-.54-.29-.98-.33-1.29-.33-1.28,0-2.17,1.21-2.17,3.76v3.07h-2.52v-8.97h2.5v1.92c.5-1.5,1.51-2.15,2.63-2.15ZM922.48,301.68h5.4c3,0,4.32,2.15,4.32,4.32s-1.32,4.28-4.32,4.28h-2.73v4.63h-2.67v-13.23ZM925.14,307.94h2.59c1.29,0,1.77-1,1.77-1.94s-.48-1.96-1.73-1.96h-2.63v3.9ZM938.95,305.71c.48,0,1.02.08,1.42.29l-.58,2.4c-.54-.29-.98-.33-1.29-.33-1.28,0-2.17,1.21-2.17,3.76v3.07h-2.52v-8.97h2.5v1.92c.5-1.5,1.52-2.15,2.63-2.15ZM942.97,304.37c-.86,0-1.59-.67-1.59-1.52s.73-1.5,1.59-1.5,1.59.65,1.59,1.5-.71,1.52-1.59,1.52ZM944.24,314.91h-2.52v-8.97h2.52v8.97ZM957.69,305.71c2.25,0,3.42,1.6,3.42,4.28v4.92h-2.53v-4.84c0-1.4-.73-2-1.61-2-1.08-.02-1.77.75-1.77,2.42v4.41h-2.52v-4.8c0-1.42-.73-2.03-1.57-2.03-.9,0-1.82.5-1.82,2.11v4.72h-2.52v-8.97h2.52v1.44c.37-1.11,1.57-1.67,2.53-1.67,1.32,0,2.34.64,2.88,1.77.65-1.31,2.05-1.77,2.99-1.77ZM970.25,307.13v-1.19h2.52v8.97h-2.52v-1.29c-.6.92-1.75,1.52-2.96,1.52-2.48,0-4.32-1.92-4.32-4.7s1.8-4.72,4.38-4.72c1.15,0,2.3.5,2.9,1.42ZM967.85,312.8c1.27,0,2.32-1.07,2.32-2.36,0-1.36-1.1-2.38-2.34-2.38s-2.28,1.08-2.28,2.38.98,2.36,2.3,2.36ZM980.43,305.71c.48,0,1.02.08,1.42.29l-.58,2.4c-.54-.29-.98-.33-1.28-.33-1.29,0-2.17,1.21-2.17,3.76v3.07h-2.51v-8.97h2.5v1.92c.5-1.5,1.51-2.15,2.63-2.15ZM986.92,311.13l2.05-5.18h2.71l-5.53,13.37h-2.69l2.13-5.24-3.55-8.12h2.77l2.11,5.18ZM1003.65,315.14c-3.74,0-6.72-3.09-6.72-6.85s2.98-6.83,6.72-6.83c2.25,0,4.2,1.07,5.4,2.75l-2.03,1.48c-.75-1.06-1.86-1.71-3.27-1.71-2.4,0-4.15,1.96-4.15,4.32s1.73,4.34,4.13,4.34c1.42,0,2.53-.65,3.28-1.71l2.03,1.48c-1.19,1.67-3.15,2.75-5.4,2.75ZM1014.97,315.14c-2.55,0-4.82-1.88-4.82-4.7s2.27-4.72,4.82-4.72,4.82,1.88,4.82,4.72-2.27,4.7-4.82,4.7ZM1014.97,312.8c1.25,0,2.27-.98,2.27-2.36s-1.02-2.38-2.27-2.38-2.27.98-2.27,2.38,1.02,2.36,2.27,2.36ZM1024.28,314.91h-2.52v-13.84h2.52v13.84ZM1031.07,315.14c-2.55,0-4.82-1.88-4.82-4.7s2.27-4.72,4.82-4.72,4.82,1.88,4.82,4.72-2.27,4.7-4.82,4.7ZM1031.07,312.8c1.25,0,2.27-.98,2.27-2.36s-1.02-2.38-2.27-2.38-2.27.98-2.27,2.38,1.02,2.36,2.27,2.36ZM1043,305.71c.48,0,1.02.08,1.42.29l-.58,2.4c-.54-.29-.98-.33-1.28-.33-1.29,0-2.17,1.21-2.17,3.76v3.07h-2.52v-8.97h2.5v1.92c.5-1.5,1.51-2.15,2.63-2.15ZM1057.48,307.84c1.69.29,2.52,1.78,2.52,3.28,0,1.82-1.25,3.78-4.16,3.78h-5.65v-13.23h5.24c2.36,0,3.88,1.42,3.88,3.42,0,.98-.38,2.3-1.82,2.75ZM1056.63,305.48c0-.8-.42-1.44-1.36-1.44h-2.42v2.9h2.42c.84,0,1.36-.56,1.36-1.46ZM1052.85,312.55h2.59c1.25,0,1.86-.81,1.86-1.69,0-.82-.56-1.69-1.82-1.69h-2.63v3.38ZM1070.97,310.28c0,.25-.02.56-.06.96h-6.74c.27,1.06,1.11,1.67,2.3,1.67.92,0,1.81-.42,2.36-1.05l1.46,1.48c-.85,1.13-2.4,1.8-3.97,1.8-2.77,0-4.78-1.94-4.78-4.7s2.21-4.72,4.76-4.72,4.67,1.82,4.67,4.57ZM1064.17,309.61h4.26c-.08-1.05-.94-1.73-2.07-1.73-1.03,0-1.92.52-2.19,1.73ZM1075.43,314.91h-2.52v-13.84h2.52v13.84ZM1082.22,315.14c-2.55,0-4.82-1.88-4.82-4.7s2.27-4.72,4.82-4.72,4.82,1.88,4.82,4.72-2.27,4.7-4.82,4.7ZM1082.22,312.8c1.25,0,2.27-.98,2.27-2.36s-1.02-2.38-2.27-2.38-2.27.98-2.27,2.38,1.02,2.36,2.27,2.36ZM1097.67,311.42l1.69-5.47h2.73l-3.17,8.97h-2.15l-1.84-5.82-1.78,5.82h-2.15l-3.26-8.97h2.73l1.69,5.47,1.71-5.47h2.11l1.71,5.47Z"/>
  </g>
  <g id="Here_are" data-name="Here are">
    <path class="cls-23" d="M609.68,247.86v-11.21h4.68v26.46h-4.68v-11.06h-10.98v11.06h-4.68v-26.46h4.68v11.21h10.98ZM637.42,253.97c0,.5-.04,1.08-.08,1.73h-13.9c.5,2.5,2.42,3.84,5.11,3.84,1.92,0,3.8-.84,4.84-2.3l3,2.27c-1.65,2.61-4.84,4.07-8.1,4.07-5.34,0-9.41-3.84-9.41-9.45s4.26-9.41,9.41-9.41,9.14,3.65,9.14,9.25ZM623.44,252.59h9.56c-.27-2.46-2.19-3.92-4.68-3.92s-4.34,1.19-4.88,3.92ZM651.11,244.72c1.08,0,2.23.23,2.92.61l-.88,4.22c-1.04-.54-1.96-.65-2.61-.65-2.92,0-4.53,2.92-4.53,7.95v6.26h-4.49v-17.93h4.45v3.84c.96-3,2.92-4.3,5.15-4.3ZM673.91,253.97c0,.5-.04,1.08-.08,1.73h-13.9c.5,2.5,2.42,3.84,5.11,3.84,1.92,0,3.8-.84,4.84-2.3l3,2.27c-1.65,2.61-4.84,4.07-8.1,4.07-5.34,0-9.41-3.84-9.41-9.45s4.26-9.41,9.41-9.41,9.14,3.65,9.14,9.25ZM659.93,252.59h9.56c-.27-2.46-2.19-3.92-4.68-3.92s-4.34,1.19-4.88,3.92ZM701.08,247.67v-2.5h4.45v17.93h-4.45v-2.8c-1.19,1.96-3.57,3.26-6.14,3.26-4.8,0-8.64-3.88-8.64-9.45s3.69-9.41,8.75-9.41c2.46,0,4.84,1.08,6.03,2.96ZM695.86,259.42c2.77,0,5.15-2.3,5.15-5.3s-2.53-5.26-5.18-5.26c-2.88,0-5.07,2.38-5.07,5.26s2.19,5.3,5.11,5.3ZM720.45,244.72c1.07,0,2.23.23,2.92.61l-.88,4.22c-1.04-.54-1.96-.65-2.61-.65-2.92,0-4.53,2.92-4.53,7.95v6.26h-4.49v-17.93h4.45v3.84c.96-3,2.92-4.3,5.15-4.3ZM743.25,253.97c0,.5-.04,1.08-.08,1.73h-13.9c.5,2.5,2.42,3.84,5.11,3.84,1.92,0,3.8-.84,4.84-2.3l3,2.27c-1.65,2.61-4.84,4.07-8.1,4.07-5.34,0-9.41-3.84-9.41-9.45s4.26-9.41,9.41-9.41,9.14,3.65,9.14,9.25ZM729.27,252.59h9.56c-.27-2.46-2.19-3.92-4.68-3.92s-4.34,1.19-4.88,3.92ZM762.78,245.18h3.8v3.53h-3.8v14.4h-4.45v-14.4h-3.23v-3.53h3.23v-6.6h4.45v6.6ZM780.01,244.72c4.61,0,7.18,3.11,7.18,8.33v10.06h-4.45v-9.75c0-2.88-1.73-4.42-3.72-4.42s-4.57,1.19-4.57,4.68v9.49h-4.45v-27.69h4.45v12.48c.88-2.19,3.76-3.19,5.57-3.19ZM809.73,253.97c0,.5-.04,1.08-.08,1.73h-13.9c.5,2.5,2.42,3.84,5.11,3.84,1.92,0,3.8-.84,4.84-2.3l3,2.27c-1.65,2.61-4.84,4.07-8.1,4.07-5.34,0-9.41-3.84-9.41-9.45s4.26-9.41,9.41-9.41,9.14,3.65,9.14,9.25ZM795.76,252.59h9.56c-.27-2.46-2.19-3.92-4.68-3.92s-4.34,1.19-4.88,3.92ZM835.68,263.57c-7.45,0-13.44-6.18-13.44-13.67s5.99-13.71,13.44-13.71c4.34,0,8.14,2.04,10.52,5.15l-3.53,2.69c-1.61-2.11-3.99-3.46-6.87-3.46-5.03,0-8.83,4.26-8.83,9.33s3.72,9.29,8.83,9.29c2.88,0,5.26-1.34,6.87-3.46l3.53,2.69c-2.38,3.11-6.18,5.15-10.52,5.15ZM858.12,263.57c-5.11,0-9.52-3.76-9.52-9.45s4.42-9.41,9.52-9.41,9.56,3.72,9.56,9.41-4.45,9.45-9.56,9.45ZM858.12,259.42c2.77,0,5.07-2.15,5.07-5.3s-2.3-5.26-5.07-5.26-5.03,2.19-5.03,5.26,2.27,5.3,5.03,5.3ZM876.33,263.11h-4.45v-27.69h4.45v27.69ZM890.03,263.57c-5.11,0-9.52-3.76-9.52-9.45s4.42-9.41,9.52-9.41,9.56,3.72,9.56,9.41-4.45,9.45-9.56,9.45ZM890.03,259.42c2.77,0,5.07-2.15,5.07-5.3s-2.3-5.26-5.07-5.26-5.03,2.19-5.03,5.26,2.27,5.3,5.03,5.3ZM913.39,244.72c1.08,0,2.23.23,2.92.61l-.89,4.22c-1.04-.54-1.96-.65-2.61-.65-2.92,0-4.53,2.92-4.53,7.95v6.26h-4.49v-17.93h4.45v3.84c.96-3,2.92-4.3,5.15-4.3ZM925,263.57c-3.57,0-7.14-2.15-7.22-5.99h4.19c0,1.23,1.07,2.38,2.96,2.38,1.77,0,2.92-.88,2.92-2.04,0-1-.77-1.46-2.11-1.77l-2.38-.61c-4.03-1.07-5.07-3.23-5.07-5.49,0-2.8,2.77-5.34,6.68-5.34,3.19,0,6.8,1.61,6.76,5.61h-4.26c0-1.23-1.11-2-2.38-2-1.38,0-2.34.81-2.34,1.92,0,.92.88,1.46,1.92,1.69l2.88.77c4.03,1.04,4.76,3.57,4.76,5.22,0,3.65-3.65,5.64-7.3,5.64ZM963.38,256.74l3.8-11.56h4.8l-6.45,17.93h-3.76l-4.18-12.25-3.99,12.25h-3.73l-6.64-17.93h4.8l3.8,11.56,3.8-11.56h3.95l3.8,11.56ZM992.21,253.97c0,.5-.04,1.08-.08,1.73h-13.9c.5,2.5,2.42,3.84,5.11,3.84,1.92,0,3.8-.84,4.84-2.3l3,2.27c-1.65,2.61-4.84,4.07-8.1,4.07-5.34,0-9.41-3.84-9.41-9.45s4.26-9.41,9.41-9.41,9.14,3.65,9.14,9.25ZM978.23,252.59h9.56c-.27-2.46-2.19-3.92-4.68-3.92s-4.34,1.19-4.88,3.92ZM1022.45,236.65v4.19h-11.36v7.18h8.98v4.19h-8.98v10.91h-4.68v-26.46h16.05ZM1033.17,263.57c-5.11,0-9.52-3.76-9.52-9.45s4.41-9.41,9.52-9.41,9.56,3.72,9.56,9.41-4.45,9.45-9.56,9.45ZM1033.17,259.42c2.76,0,5.07-2.15,5.07-5.3s-2.3-5.26-5.07-5.26-5.03,2.19-5.03,5.26,2.27,5.3,5.03,5.3ZM1059.44,254.78v-9.6h4.45v17.93h-4.45v-2.8c-.92,2.27-3.76,3.26-5.57,3.26-4.61,0-7.18-3.11-7.18-8.33v-10.06h4.45v9.87c0,2.88,1.73,4.38,3.73,4.38s4.57-1.15,4.57-4.65ZM1079.22,244.72c4.61,0,7.18,3.11,7.18,8.33v10.06h-4.45v-9.75c0-2.88-1.73-4.42-3.73-4.42s-4.57,1.19-4.57,4.65v9.52h-4.45v-17.93h4.45v2.84c.92-2.27,3.73-3.3,5.57-3.3ZM1105.18,247.52v-12.1h4.45v27.69h-4.45v-2.38c-1.23,1.88-3.76,2.84-5.95,2.84-4.72,0-8.83-3.72-8.83-9.45s4.07-9.41,8.79-9.41c2.27,0,4.76.92,5.99,2.8ZM1099.92,259.42c2.73,0,5.18-2.19,5.18-5.34s-2.61-5.22-5.18-5.22c-2.77,0-5.03,2.23-5.03,5.22s2.27,5.34,5.03,5.34ZM1132.73,263.57c-5.11,0-9.52-3.76-9.52-9.45s4.42-9.41,9.52-9.41,9.56,3.72,9.56,9.41-4.45,9.45-9.56,9.45ZM1132.73,259.42c2.77,0,5.07-2.15,5.07-5.3s-2.3-5.26-5.07-5.26-5.03,2.19-5.03,5.26,2.27,5.3,5.03,5.3ZM1156.51,244.72c4.61,0,7.18,3.11,7.18,8.33v10.06h-4.45v-9.75c0-2.88-1.73-4.42-3.72-4.42s-4.57,1.19-4.57,4.65v9.52h-4.45v-17.93h4.45v2.84c.92-2.27,3.72-3.3,5.57-3.3ZM1186.65,246.94l7.03-10.29h5.57l-10.22,14.44v12.02h-4.72v-12.06l-10.14-14.4h5.53l6.95,10.29ZM1205.63,263.57c-5.11,0-9.52-3.76-9.52-9.45s4.41-9.41,9.52-9.41,9.56,3.72,9.56,9.41-4.45,9.45-9.56,9.45ZM1205.63,259.42c2.77,0,5.07-2.15,5.07-5.3s-2.3-5.26-5.07-5.26-5.03,2.19-5.03,5.26,2.27,5.3,5.03,5.3ZM1231.91,254.78v-9.6h4.45v17.93h-4.45v-2.8c-.92,2.27-3.76,3.26-5.57,3.26-4.61,0-7.18-3.11-7.18-8.33v-10.06h4.45v9.87c0,2.88,1.73,4.38,3.73,4.38s4.57-1.15,4.57-4.65ZM1251.26,244.72c1.08,0,2.23.23,2.92.61l-.88,4.22c-1.04-.54-1.96-.65-2.61-.65-2.92,0-4.53,2.92-4.53,7.95v6.26h-4.49v-17.93h4.45v3.84c.96-3,2.92-4.3,5.15-4.3ZM1274.15,263.57c-5.64,0-9.45-3.61-9.45-8.1h4.65c.04,2.07,2,3.96,4.92,3.96,2.69,0,4.42-1.65,4.42-3.72,0-1.84-1.58-2.92-3.8-3.53l-3.3-.92c-5.68-1.46-6.68-4.88-6.68-7.18,0-4.68,4.11-7.87,8.99-7.87s8.64,3,8.64,7.95h-4.65c0-2.19-1.65-3.76-4.11-3.76-2.27,0-4.15,1.54-4.15,3.61,0,.73.23,2.27,3.26,3.07l3.15.92c4.15,1.15,7.33,3.3,7.33,7.53,0,4.84-4.03,8.06-9.22,8.06ZM1289.83,241.57c-1.57,0-2.92-1.19-2.92-2.73s1.35-2.73,2.92-2.73,2.88,1.15,2.88,2.73-1.27,2.73-2.88,2.73ZM1292.05,263.11h-4.45v-17.93h4.45v17.93ZM1303.42,245.18h3.8v3.53h-3.8v14.4h-4.45v-14.4h-3.23v-3.53h3.23v-6.6h4.45v6.6ZM1327.72,253.97c0,.5-.04,1.08-.08,1.73h-13.9c.5,2.5,2.42,3.84,5.11,3.84,1.92,0,3.8-.84,4.84-2.3l3,2.27c-1.65,2.61-4.84,4.07-8.1,4.07-5.34,0-9.41-3.84-9.41-9.45s4.26-9.41,9.41-9.41,9.14,3.65,9.14,9.25ZM1313.74,252.59h9.56c-.27-2.46-2.19-3.92-4.68-3.92s-4.34,1.19-4.88,3.92Z"/>
  </g>
  <g id="Custom">
    <path class="cls-23" d="M1151.24,439.29c-3.28,0-5.88-2.71-5.88-6s2.61-5.98,5.88-5.98c1.96,0,3.68.94,4.72,2.4l-1.78,1.3c-.65-.92-1.63-1.5-2.86-1.5-2.1,0-3.63,1.71-3.63,3.78s1.51,3.8,3.61,3.8c1.24,0,2.22-.57,2.87-1.5l1.78,1.29c-1.04,1.46-2.75,2.4-4.72,2.4ZM1162.76,435.39v-4.15h2.2v7.85h-2.2v-1.28c-.34,1.02-1.58,1.48-2.35,1.48-2.05,0-3.13-1.38-3.11-3.73v-4.32h2.2v4.2c0,1.23.74,1.8,1.5,1.8s1.76-.44,1.76-1.85ZM1169.95,439.29c-1.65,0-3.24-.94-3.26-2.67h2.07c0,.46.39.94,1.16.94.64,0,1.12-.32,1.12-.77,0-.33-.27-.5-.86-.65l-1.04-.25c-2.02-.54-2.28-1.66-2.28-2.48,0-1.21,1.26-2.35,3.07-2.35,1.43,0,3.11.69,3.09,2.55h-2.1c0-.54-.44-.82-.96-.82s-.91.29-.91.69c0,.37.33.56.77.67l1.29.33c1.88.5,2.12,1.68,2.12,2.32,0,1.65-1.68,2.5-3.29,2.5ZM1177.88,431.24h1.66v1.71h-1.66v6.13h-2.2v-6.13h-1.43v-1.71h1.43v-2.86h2.2v2.86ZM1184.52,439.29c-2.23,0-4.22-1.65-4.22-4.12s1.98-4.13,4.22-4.13,4.22,1.64,4.22,4.13-1.98,4.12-4.22,4.12ZM1184.52,437.24c1.09,0,1.98-.86,1.98-2.07s-.89-2.08-1.98-2.08-1.98.86-1.98,2.08.89,2.07,1.98,2.07ZM1200.03,431.04c1.97,0,2.99,1.39,2.99,3.75v4.3h-2.22v-4.23c0-1.23-.64-1.75-1.41-1.75-.94-.02-1.55.65-1.55,2.12v3.86h-2.2v-4.2c0-1.24-.64-1.78-1.38-1.78-.79,0-1.6.44-1.6,1.85v4.13h-2.2v-7.85h2.2v1.26c.32-.98,1.38-1.46,2.22-1.46,1.16,0,2.05.55,2.52,1.55.57-1.14,1.8-1.55,2.62-1.55ZM1214.6,439.29c-3.28,0-5.88-2.71-5.88-6s2.61-5.98,5.88-5.98c1.96,0,3.68.94,4.72,2.4l-1.78,1.3c-.65-.92-1.63-1.5-2.86-1.5-2.1,0-3.63,1.71-3.63,3.78s1.51,3.8,3.61,3.8c1.24,0,2.22-.57,2.87-1.5l1.78,1.29c-1.04,1.46-2.75,2.4-4.72,2.4ZM1224.5,439.29c-2.23,0-4.22-1.65-4.22-4.12s1.98-4.13,4.22-4.13,4.22,1.64,4.22,4.13-1.98,4.12-4.22,4.12ZM1224.5,437.24c1.09,0,1.98-.86,1.98-2.07s-.89-2.08-1.98-2.08-1.98.86-1.98,2.08.89,2.07,1.98,2.07ZM1232.65,439.09h-2.2v-12.11h2.2v12.11ZM1238.6,439.29c-2.23,0-4.22-1.65-4.22-4.12s1.98-4.13,4.22-4.13,4.22,1.64,4.22,4.13-1.98,4.12-4.22,4.12ZM1238.6,437.24c1.09,0,1.98-.86,1.98-2.07s-.89-2.08-1.98-2.08-1.98.86-1.98,2.08.89,2.07,1.98,2.07ZM1249.03,431.04c.42,0,.89.07,1.24.25l-.5,2.1c-.47-.25-.86-.29-1.13-.29-1.12,0-1.9,1.06-1.9,3.29v2.69h-2.2v-7.85h2.18v1.68c.44-1.31,1.33-1.88,2.3-1.88Z"/>
  </g>
  <g id="Custom-path">
    <path class="cls-2" d="M1197.5,362.34h0c39.43,0,71.4,31.97,71.4,71.4h0c0,39.43-31.97,71.4-71.4,71.4h0c-39.43,0-71.4-31.97-71.4-71.4h0c0-39.43,31.97-71.4,71.4-71.4Z"/>
  </g>
  <g id="White">
    <path class="cls-10" d="M1039.1,361.74h0c39.76,0,72,32.24,72,72h0c0,39.76-32.24,72-72,72h0c-39.76,0-72-32.24-72-72h0c0-39.76,32.24-72,72-72Z"/>
  </g>
  <g id="orange">
    <path class="cls-14" d="M880.7,361.74h0c39.76,0,72,32.24,72,72h0c0,39.76-32.24,72-72,72h0c-39.76,0-72-32.24-72-72h0c0-39.76,32.24-72,72-72Z"/>
  </g>
  <g id="Mouse">
    <g>
      <path class="cls-11" d="M715.1,455.34l-1.26-1.62c-.73-1.11-2.27-1.51-3.46-.91l.28-.14c-.29.15-.43.53-.31.84l1.47,3.81c.23.6.83,1.46,1.32,1.89,0,0,3.16,2.45,3.16,3.37v1.16h4.8l1.2-2.4,1.2,2.4h1.2v-1.16c0-.92,1.61-3.82,1.61-3.82.33-.56.79-1.55.79-2.21v-4.84c-.02-1.07-1.11-1.94-2.23-1.94-.56,0-1.02.44-1.02.97v.39c0-1.07-.91-1.94-2.03-1.94-.56,0-1.02.44-1.02.97v.39c0-1.07-.91-1.94-2.04-1.94-.56,0-1.26.44-1.26.97v.39c0-.17.04-.31,0-.42v-6.2c-.04-.68-.73-1.2-1.4-1.2s-1,.54-1,1.2v12ZM718.7,454.14h1.2v4.8h-1.2v-4.8ZM721.1,454.14h1.2v4.8h-1.2v-4.8ZM723.5,454.14h1.2v4.8h-1.2v-4.8Z"/>
      <g class="cls-12">
        <path d="M715.1,455.34l-.95.74c.31.4.85.56,1.33.4.49-.17.81-.62.81-1.14h-1.2ZM713.84,453.72l-1,.65s.04.05.06.08l.95-.73ZM709.83,451.74c-.59.3-.82,1.03-.52,1.62.3.59,1.03.82,1.62.52l-1.1-2.14ZM711.2,453.73c.59-.3.82-1.03.52-1.62-.3-.59-1.03-.82-1.62-.52l1.1,2.13ZM710.34,453.51l-1.12.43h0l1.12-.43ZM711.82,457.32l1.12-.43h0l-1.12.43ZM713.14,459.2l-.79.9s.03.03.05.04l.74-.95ZM716.3,463.74h-1.2c0,.66.54,1.2,1.2,1.2v-1.2ZM721.1,463.74v1.2c.46,0,.87-.26,1.07-.66l-1.07-.54ZM722.3,461.34l1.07-.54c-.2-.41-.62-.66-1.07-.66s-.87.26-1.07.66l1.07.54ZM723.5,463.74l-1.07.54c.21.41.62.66,1.07.66v-1.2ZM724.7,463.74v1.2c.66,0,1.2-.54,1.2-1.2h-1.2ZM726.31,458.76l-1.03-.61s-.01.02-.02.03l1.05.58ZM727.1,451.71h1.2v-.03l-1.2.03ZM722.65,451.12c0,.66.54,1.2,1.2,1.2s1.2-.54,1.2-1.2h-2.4ZM719.6,450.54c0,.66.54,1.2,1.2,1.2s1.2-.54,1.2-1.2h-2.4ZM716.3,449.96c0,.66.54,1.2,1.2,1.2s1.2-.54,1.2-1.2h-2.4ZM717.5,449.54h-1.2c0,.13.02.25.06.37l1.14-.37ZM717.5,443.34h1.2s0-.05,0-.08l-1.2.08ZM715.1,443.34h-1.2,1.2ZM719.9,454.14h1.2c0-.32-.13-.62-.35-.85-.22-.22-.53-.35-.85-.35v1.2ZM719.9,458.94v1.2c.66,0,1.2-.54,1.2-1.2h-1.2ZM718.7,458.94h-1.2c0,.66.54,1.2,1.2,1.2v-1.2ZM718.7,454.14v-1.2c-.66,0-1.2.54-1.2,1.2h1.2ZM722.3,454.14h1.2c0-.32-.13-.62-.35-.85s-.53-.35-.85-.35v1.2ZM722.3,458.94v1.2c.66,0,1.2-.54,1.2-1.2h-1.2ZM721.1,458.94h-1.2c0,.66.54,1.2,1.2,1.2v-1.2ZM721.1,454.14v-1.2c-.66,0-1.2.54-1.2,1.2h1.2ZM724.7,454.14h1.2c0-.32-.13-.62-.35-.85s-.53-.35-.85-.35v1.2ZM724.7,458.94v1.2c.66,0,1.2-.54,1.2-1.2h-1.2ZM723.5,458.94h-1.2c0,.66.54,1.2,1.2,1.2v-1.2ZM723.5,454.14v-1.2c-.66,0-1.2.54-1.2,1.2h1.2ZM716.05,454.6l-1.26-1.62-1.9,1.47,1.26,1.63,1.89-1.47ZM714.84,453.06c-1.07-1.63-3.29-2.2-5.01-1.32l1.1,2.14c.64-.33,1.52-.1,1.91.49l2.01-1.31ZM710.93,453.88l.28-.14-1.1-2.13-.28.14,1.1,2.14ZM710.11,451.6c-.85.44-1.22,1.47-.89,2.34l2.24-.87c.05.14.04.27,0,.37-.04.1-.12.21-.26.29l-1.1-2.13ZM709.22,453.94l1.47,3.81,2.24-.86-1.47-3.81-2.24.87ZM710.7,457.75c.3.79,1.01,1.8,1.66,2.36l1.57-1.81c-.35-.3-.83-.99-.99-1.41l-2.24.86ZM713.14,459.2l-.74.95h0s.01.02.02.03c.02.02.05.04.1.07.08.06.2.16.34.28.28.24.66.56,1.04.9.38.35.73.7.97,1,.12.15.2.26.24.33.05.1-.02.02-.02-.17h2.4c0-.42-.17-.78-.29-.99-.13-.24-.31-.48-.48-.69-.35-.42-.79-.86-1.2-1.24-.42-.38-.83-.73-1.14-.99-.15-.13-.28-.23-.37-.3-.04-.04-.08-.06-.11-.08-.01,0-.02-.02-.03-.02,0,0,0,0,0,0,0,0,0,0,0,0h0s0,0-.74.95ZM715.1,462.58v1.16h2.4v-1.16h-2.4ZM716.3,464.94h4.8v-2.4h-4.8v2.4ZM722.17,464.28l1.2-2.4-2.15-1.07-1.2,2.4,2.15,1.07ZM721.23,461.88l1.2,2.4,2.15-1.07-1.2-2.4-2.15,1.07ZM723.5,464.94h1.2v-2.4h-1.2v2.4ZM725.9,463.74v-1.16h-2.4v1.16h2.4ZM725.9,462.58s.02-.15.17-.56c.13-.35.32-.77.51-1.17.19-.4.39-.78.53-1.05.07-.14.13-.25.17-.33.02-.04.04-.07.05-.09,0,0,0-.02.01-.02,0,0,0,0,0,0h0l-1.05-.58q-1.05-.58-1.05-.58h0s0,0,0,0c0,0,0,.02-.01.03-.01.02-.03.06-.05.1-.05.08-.11.21-.19.35-.15.3-.37.7-.58,1.14-.21.44-.43.92-.6,1.37-.15.39-.33.93-.33,1.41h2.4ZM727.35,459.37c.2-.33.42-.78.6-1.25.17-.44.35-1.02.35-1.57h-2.4c0,.1-.05.35-.19.71-.13.33-.3.66-.43.89l2.07,1.22ZM728.3,456.55v-4.84h-2.4v4.84h2.4ZM728.3,451.68c-.02-.95-.51-1.74-1.13-2.26-.62-.53-1.44-.85-2.3-.85v2.4c.26,0,.54.11.75.29.21.18.28.36.28.48l2.4-.05ZM724.87,448.56c-1.17,0-2.22.92-2.22,2.17h2.4c0,.08-.04.15-.07.18-.04.03-.08.04-.11.04v-2.4ZM722.65,450.74v.39h2.4v-.39h-2.4ZM725.05,451.12c0-1.79-1.5-3.14-3.23-3.14v2.4c.52,0,.83.39.83.74h2.4ZM721.81,447.98c-1.17,0-2.22.92-2.22,2.17h2.4c0,.08-.04.15-.08.18-.03.04-.08.05-.11.05v-2.4ZM719.6,450.16v.39h2.4v-.39h-2.4ZM722,450.54c0-1.79-1.5-3.14-3.24-3.14v2.4c.52,0,.84.39.84.74h2.4ZM718.76,447.4c-.56,0-1.11.21-1.54.51-.41.3-.92.85-.92,1.66h2.4c0,.13-.04.23-.07.27-.02.04-.03.04-.01.02.02-.02.06-.03.09-.05.04-.01.06-.01.05-.01v-2.4ZM716.3,449.57v.39h2.4v-.39h-2.4ZM718.7,449.96s0-.01,0-.04c0-.01,0-.03,0-.05,0-.02,0-.04,0-.07,0-.08.03-.35-.07-.64l-2.28.75c-.03-.1-.04-.18-.04-.22v-.04s0,0,0,0c0,0,0,.02,0,.04,0,.01,0,.04,0,.06,0,.05,0,.13,0,.21h2.4ZM718.7,449.54v-6.2h-2.4v6.2h2.4ZM718.7,443.27c-.05-.74-.44-1.33-.9-1.71-.46-.38-1.06-.62-1.69-.62v2.4s.03,0,.07.02c.04.01.07.03.1.06.06.05.04.06.03,0l2.39-.15ZM716.1,440.94c-.69,0-1.3.3-1.7.82-.37.48-.5,1.07-.5,1.58h2.4c0-.07,0-.11.01-.13,0-.02,0-.01-.01.02-.02.03-.06.06-.12.09s-.09.03-.08.03v-2.4ZM713.9,443.34v6h2.4v-6h-2.4ZM713.9,449.34v6h2.4v-6h-2.4ZM718.7,455.34h1.2v-2.4h-1.2v2.4ZM718.7,454.14v4.8h2.4v-4.8h-2.4ZM719.9,457.74h-1.2v2.4h1.2v-2.4ZM719.9,458.94v-4.8h-2.4v4.8h2.4ZM721.1,455.34h1.2v-2.4h-1.2v2.4ZM721.1,454.14v4.8h2.4v-4.8h-2.4ZM722.3,457.74h-1.2v2.4h1.2v-2.4ZM722.3,458.94v-4.8h-2.4v4.8h2.4ZM723.5,455.34h1.2v-2.4h-1.2v2.4ZM723.5,454.14v4.8h2.4v-4.8h-2.4ZM724.7,457.74h-1.2v2.4h1.2v-2.4ZM724.7,458.94v-4.8h-2.4v4.8h2.4Z"/>
      </g>
    </g>
  </g>
  <g id="Bar">
    <rect class="cls-21" x="959" y="563.34" width="1.8" height="165.74"/>
  </g>
  <g id="Secondary-color">
    <g class="cls-18">
      <rect class="cls-17" x="1004" y="621.06" width="312" height="93.62" rx="9.6" ry="9.6"/>
      <path class="cls-17" d="M1048.4,637.87h0c16.57,0,30,13.43,30,30h0c0,16.57-13.43,30-30,30h0c-16.57,0-30-13.43-30-30h0c0-16.57,13.43-30,30-30Z"/>
      <path class="cls-2" d="M1048.4,638.47h0c16.24,0,29.4,13.16,29.4,29.4h0c0,16.24-13.16,29.4-29.4,29.4h0c-16.24,0-29.4-13.16-29.4-29.4h0c0-16.24,13.16-29.4,29.4-29.4Z"/>
      <path class="cls-23" d="M1097.74,654.21c-2.47,0-4.13-1.58-4.13-3.55h2.03c.02.91.87,1.73,2.15,1.73,1.17,0,1.93-.72,1.93-1.63,0-.81-.69-1.28-1.66-1.55l-1.44-.4c-2.48-.64-2.92-2.13-2.92-3.14,0-2.05,1.8-3.45,3.93-3.45s3.78,1.31,3.78,3.48h-2.03c0-.96-.72-1.65-1.8-1.65-.99,0-1.82.67-1.82,1.58,0,.32.1.99,1.43,1.34l1.38.4c1.81.5,3.21,1.44,3.21,3.29,0,2.12-1.76,3.53-4.03,3.53ZM1111.32,650.01c0,.22-.02.47-.03.76h-6.08c.22,1.09,1.06,1.68,2.23,1.68.84,0,1.66-.37,2.12-1.01l1.31.99c-.72,1.14-2.12,1.78-3.54,1.78-2.34,0-4.12-1.68-4.12-4.13s1.87-4.12,4.12-4.12,4,1.6,4,4.05ZM1105.2,649.41h4.18c-.12-1.08-.96-1.71-2.05-1.71s-1.9.52-2.13,1.71ZM1116.87,654.21c-2.27,0-4.27-1.65-4.27-4.13s2-4.12,4.27-4.12c1.36,0,2.47.61,3.19,1.51l-1.38,1.09c-.4-.49-1.07-.79-1.78-.79-1.36,0-2.34.98-2.34,2.3s.97,2.32,2.34,2.32c.71,0,1.38-.3,1.78-.79l1.38,1.09c-.72.9-1.83,1.51-3.19,1.51ZM1125.25,654.21c-2.23,0-4.16-1.65-4.16-4.13s1.93-4.12,4.16-4.12,4.18,1.63,4.18,4.12-1.95,4.13-4.18,4.13ZM1125.25,652.4c1.21,0,2.22-.94,2.22-2.32s-1.01-2.3-2.22-2.3-2.2.96-2.2,2.3.99,2.32,2.2,2.32ZM1135.65,645.96c2.02,0,3.14,1.36,3.14,3.65v4.4h-1.95v-4.27c0-1.26-.76-1.93-1.63-1.93s-2,.52-2,2.03v4.17h-1.95v-7.85h1.95v1.24c.4-.99,1.63-1.45,2.43-1.45ZM1147.01,647.19v-5.29h1.95v12.11h-1.95v-1.04c-.54.82-1.65,1.24-2.61,1.24-2.07,0-3.86-1.63-3.86-4.13s1.78-4.12,3.85-4.12c.99,0,2.09.4,2.62,1.23ZM1144.71,652.4c1.19,0,2.27-.96,2.27-2.34s-1.14-2.28-2.27-2.28c-1.21,0-2.2.98-2.2,2.28s.99,2.34,2.2,2.34ZM1157.28,647.26v-1.09h1.95v7.85h-1.95v-1.23c-.52.85-1.56,1.43-2.69,1.43-2.1,0-3.78-1.7-3.78-4.13s1.61-4.12,3.83-4.12c1.08,0,2.12.47,2.64,1.3ZM1154.99,652.4c1.21,0,2.25-1.01,2.25-2.32s-1.11-2.3-2.27-2.3c-1.26,0-2.22,1.04-2.22,2.3s.96,2.32,2.23,2.32ZM1165.75,645.96c.47,0,.98.1,1.28.27l-.39,1.85c-.45-.24-.86-.29-1.14-.29-1.28,0-1.98,1.28-1.98,3.48v2.74h-1.96v-7.85h1.95v1.68c.42-1.31,1.28-1.88,2.25-1.88ZM1171.49,651.14l2.01-4.97h2.1l-4.87,11.68h-2.05l1.76-4.38-3.13-7.29h2.13l2.03,4.97ZM1186.31,654.21c-3.26,0-5.88-2.71-5.88-5.98s2.62-6,5.88-6c1.9,0,3.56.89,4.6,2.25l-1.55,1.18c-.71-.92-1.75-1.51-3.01-1.51-2.2,0-3.86,1.86-3.86,4.08s1.63,4.06,3.86,4.06c1.26,0,2.3-.59,3.01-1.51l1.55,1.18c-1.04,1.36-2.7,2.25-4.6,2.25ZM1196.13,654.21c-2.23,0-4.17-1.65-4.17-4.13s1.93-4.12,4.17-4.12,4.18,1.63,4.18,4.12-1.95,4.13-4.18,4.13ZM1196.13,652.4c1.21,0,2.22-.94,2.22-2.32s-1.01-2.3-2.22-2.3-2.2.96-2.2,2.3.99,2.32,2.2,2.32ZM1204.09,654.01h-1.95v-12.11h1.95v12.11ZM1210.09,654.21c-2.23,0-4.17-1.65-4.17-4.13s1.93-4.12,4.17-4.12,4.18,1.63,4.18,4.12-1.95,4.13-4.18,4.13ZM1210.09,652.4c1.21,0,2.22-.94,2.22-2.32s-1.01-2.3-2.22-2.3-2.2.96-2.2,2.3.99,2.32,2.2,2.32ZM1220.3,645.96c.47,0,.98.1,1.28.27l-.39,1.85c-.45-.24-.86-.29-1.14-.29-1.28,0-1.98,1.28-1.98,3.48v2.74h-1.96v-7.85h1.95v1.68c.42-1.31,1.28-1.88,2.25-1.88Z"/>
      <path class="cls-19" d="M1098.75,687.77h-5.07v-1.67h5.07v1.67ZM1105.57,687.77h-5.07v-1.67h5.07v1.67ZM1112.39,687.77h-5.07v-1.67h5.07v1.67Z"/>
      <path class="cls-5" d="M1255.37,692.45h-5.84M1241.86,692.82l4.05-1.56c.26-.1.39-.15.51-.21.11-.06.21-.12.31-.2.11-.08.21-.18.4-.38l8.24-8.24c.81-.81.81-2.11,0-2.92-.81-.81-2.11-.81-2.92,0l-8.24,8.24c-.2.2-.3.3-.38.4-.08.1-.14.2-.2.31-.06.12-.12.25-.21.51l-1.56,4.05ZM1241.86,692.82l1.5-3.91c.11-.28.16-.42.25-.48.08-.06.18-.08.28-.06.11.02.22.13.43.34l1.65,1.65c.21.21.32.32.34.43.02.1,0,.2-.06.28-.06.09-.21.15-.48.25l-3.91,1.5Z"/>
      <path class="cls-5" d="M1285.01,679.31h4.38M1280.63,681.5h13.15M1292.31,681.5l-.51,7.68c-.08,1.15-.12,1.73-.36,2.16-.22.38-.55.69-.95.89-.45.22-1.03.22-2.18.22h-2.21c-1.16,0-1.73,0-2.19-.22-.4-.19-.73-.5-.95-.89-.25-.44-.29-1.01-.37-2.16l-.51-7.68"/>
      <rect class="cls-2" x="1004.6" y="621.66" width="310.8" height="92.42" rx="9" ry="9"/>
    </g>
  </g>
  <g id="Secondary">
    <path class="cls-23" d="M1011.06,602.48c-3.53,0-5.9-2.25-5.9-5.06h2.9c.03,1.3,1.25,2.47,3.07,2.47,1.68,0,2.76-1.03,2.76-2.33,0-1.15-.98-1.82-2.38-2.21l-2.06-.58c-3.55-.91-4.18-3.05-4.18-4.49,0-2.93,2.57-4.92,5.61-4.92s5.4,1.87,5.4,4.97h-2.91c0-1.37-1.03-2.35-2.57-2.35-1.42,0-2.59.96-2.59,2.26,0,.46.15,1.42,2.04,1.92l1.97.58c2.59.72,4.59,2.07,4.59,4.7,0,3.02-2.52,5.04-5.76,5.04ZM1030.45,596.48c0,.31-.02.67-.05,1.08h-8.69c.31,1.56,1.51,2.4,3.19,2.4,1.2,0,2.37-.53,3.02-1.44l1.87,1.42c-1.03,1.63-3.02,2.54-5.06,2.54-3.34,0-5.88-2.4-5.88-5.9s2.66-5.88,5.88-5.88,5.71,2.28,5.71,5.78ZM1021.72,595.61h5.97c-.17-1.54-1.37-2.45-2.93-2.45s-2.71.74-3.05,2.45ZM1038.38,602.48c-3.24,0-6.1-2.35-6.1-5.9s2.86-5.88,6.1-5.88c1.94,0,3.53.87,4.56,2.16l-1.97,1.56c-.58-.7-1.53-1.13-2.54-1.13-1.94,0-3.34,1.39-3.34,3.29s1.39,3.31,3.34,3.31c1.01,0,1.97-.43,2.54-1.13l1.97,1.56c-1.03,1.3-2.62,2.16-4.56,2.16ZM1050.36,602.48c-3.19,0-5.95-2.35-5.95-5.9s2.76-5.88,5.95-5.88,5.97,2.33,5.97,5.88-2.78,5.9-5.97,5.9ZM1050.36,599.89c1.73,0,3.17-1.34,3.17-3.31s-1.44-3.29-3.17-3.29-3.14,1.37-3.14,3.29,1.42,3.31,3.14,3.31ZM1065.22,590.69c2.88,0,4.49,1.94,4.49,5.21v6.29h-2.78v-6.1c0-1.8-1.08-2.76-2.33-2.76s-2.86.74-2.86,2.9v5.95h-2.78v-11.21h2.78v1.78c.58-1.42,2.33-2.07,3.48-2.07ZM1081.44,592.45v-7.56h2.79v17.3h-2.79v-1.49c-.77,1.18-2.35,1.78-3.72,1.78-2.95,0-5.52-2.33-5.52-5.9s2.54-5.88,5.5-5.88c1.42,0,2.98.58,3.74,1.75ZM1078.15,599.89c1.7,0,3.24-1.37,3.24-3.34s-1.63-3.26-3.24-3.26c-1.73,0-3.14,1.39-3.14,3.26s1.42,3.34,3.14,3.34ZM1096.12,592.54v-1.56h2.78v11.21h-2.78v-1.75c-.74,1.22-2.23,2.04-3.84,2.04-3,0-5.4-2.42-5.4-5.9s2.3-5.88,5.47-5.88c1.53,0,3.02.67,3.77,1.85ZM1092.85,599.89c1.73,0,3.22-1.44,3.22-3.31s-1.58-3.29-3.24-3.29c-1.8,0-3.17,1.49-3.17,3.29s1.37,3.31,3.19,3.31ZM1108.22,590.69c.67,0,1.39.15,1.82.39l-.55,2.64c-.65-.33-1.22-.41-1.63-.41-1.82,0-2.83,1.82-2.83,4.97v3.91h-2.81v-11.21h2.78v2.4c.6-1.87,1.82-2.69,3.22-2.69ZM1116.41,598.09l2.88-7.1h3l-6.96,16.68h-2.93l2.52-6.26-4.46-10.42h3.05l2.91,7.1Z"/>
    <path class="cls-9" d="M1139.39,597.8v-3.2M1139.39,591.4h0M1147.4,594.6c0,4.42-3.58,8-8,8s-8-3.58-8-8,3.58-8,8-8,8,3.58,8,8Z"/>
  </g>
  <g id="Primary-color">
    <rect class="cls-17" x="603.8" y="621.06" width="312" height="93.62" rx="9.6" ry="9.6"/>
    <path class="cls-17" d="M648.2,637.87h0c16.57,0,30,13.43,30,30h0c0,16.57-13.43,30-30,30h0c-16.57,0-30-13.43-30-30h0c0-16.57,13.43-30,30-30Z"/>
    <path class="cls-2" d="M648.2,638.47h0c16.24,0,29.4,13.16,29.4,29.4h0c0,16.24-13.16,29.4-29.4,29.4h0c-16.24,0-29.4-13.16-29.4-29.4h0c0-16.24,13.16-29.4,29.4-29.4Z"/>
    <path class="cls-23" d="M694.08,642.44h4.69c2.55,0,3.64,1.87,3.64,3.71s-1.09,3.71-3.64,3.71h-2.64v4.15h-2.05v-11.58ZM696.13,648.01h2.54c1.21,0,1.7-.92,1.7-1.87s-.47-1.88-1.65-1.88h-2.59v3.75ZM708.16,645.96c.47,0,.98.1,1.28.27l-.38,1.85c-.46-.24-.86-.29-1.14-.29-1.28,0-1.98,1.28-1.98,3.48v2.74h-1.97v-7.85h1.95v1.68c.42-1.31,1.28-1.88,2.25-1.88ZM711.71,644.59c-.69,0-1.28-.52-1.28-1.19s.59-1.19,1.28-1.19,1.26.51,1.26,1.19-.56,1.19-1.26,1.19ZM712.69,654.01h-1.95v-7.85h1.95v7.85ZM724.46,645.96c1.96,0,3.01,1.36,3.01,3.65v4.4h-1.93v-4.3c0-1.26-.66-1.92-1.56-1.92-1.13,0-1.76.77-1.76,2.34v3.88h-1.95v-4.3c0-1.24-.65-1.92-1.5-1.92-.9,0-1.81.54-1.81,2.03v4.18h-1.95v-7.85h1.95v1.21c.33-.91,1.38-1.41,2.34-1.41,1.14,0,2.07.59,2.53,1.58.62-1.23,1.85-1.58,2.64-1.58ZM735.7,647.26v-1.09h1.95v7.85h-1.95v-1.23c-.52.85-1.56,1.43-2.69,1.43-2.1,0-3.78-1.7-3.78-4.13s1.61-4.12,3.83-4.12c1.07,0,2.12.47,2.64,1.3ZM733.42,652.4c1.21,0,2.25-1.01,2.25-2.32s-1.11-2.3-2.27-2.3c-1.26,0-2.22,1.04-2.22,2.3s.96,2.32,2.23,2.32ZM744.18,645.96c.47,0,.98.1,1.28.27l-.39,1.85c-.45-.24-.86-.29-1.14-.29-1.28,0-1.98,1.28-1.98,3.48v2.74h-1.96v-7.85h1.95v1.68c.42-1.31,1.28-1.88,2.25-1.88ZM749.91,651.14l2.02-4.97h2.1l-4.87,11.68h-2.05l1.76-4.38-3.13-7.29h2.13l2.03,4.97ZM764.73,654.21c-3.26,0-5.88-2.71-5.88-5.98s2.62-6,5.88-6c1.9,0,3.56.89,4.6,2.25l-1.55,1.18c-.71-.92-1.75-1.51-3.01-1.51-2.2,0-3.86,1.86-3.86,4.08s1.63,4.06,3.86,4.06c1.26,0,2.3-.59,3.01-1.51l1.55,1.18c-1.04,1.36-2.71,2.25-4.6,2.25ZM774.55,654.21c-2.24,0-4.17-1.65-4.17-4.13s1.93-4.12,4.17-4.12,4.18,1.63,4.18,4.12-1.95,4.13-4.18,4.13ZM774.55,652.4c1.21,0,2.22-.94,2.22-2.32s-1.01-2.3-2.22-2.3-2.2.96-2.2,2.3.99,2.32,2.2,2.32ZM782.51,654.01h-1.95v-12.11h1.95v12.11ZM788.51,654.21c-2.23,0-4.17-1.65-4.17-4.13s1.93-4.12,4.17-4.12,4.18,1.63,4.18,4.12-1.95,4.13-4.18,4.13ZM788.51,652.4c1.21,0,2.22-.94,2.22-2.32s-1.01-2.3-2.22-2.3-2.2.96-2.2,2.3.99,2.32,2.2,2.32ZM798.73,645.96c.47,0,.98.1,1.28.27l-.38,1.85c-.45-.24-.86-.29-1.14-.29-1.28,0-1.98,1.28-1.98,3.48v2.74h-1.96v-7.85h1.95v1.68c.42-1.31,1.28-1.88,2.25-1.88Z"/>
    <rect class="cls-2" x="604.4" y="621.66" width="310.8" height="92.42" rx="9" ry="9"/>
  </g>
  <g id="edit-dash">
    <line class="cls-5" x1="855.17" y1="692.45" x2="849.33" y2="692.45"/>
  </g>
  <g id="edit">
    <path class="cls-5" d="M841.66,692.82l4.05-1.56c.26-.1.39-.15.51-.21.11-.06.21-.12.31-.2.11-.08.21-.18.4-.38l8.24-8.24c.81-.81.81-2.11,0-2.92-.81-.81-2.12-.81-2.92,0l-8.24,8.24c-.19.2-.29.3-.38.4-.08.1-.14.2-.2.31-.07.12-.12.25-.22.51l-1.56,4.05Z"/>
    <path class="cls-5" d="M841.66,692.82l1.5-3.91c.11-.28.16-.42.26-.48.08-.06.18-.08.28-.06.11.02.22.13.43.34l1.65,1.65c.21.21.32.32.34.43.02.1,0,.2-.06.28-.06.09-.2.15-.48.25l-3.91,1.5Z"/>
  </g>
  <g id="Primary">
    <path class="cls-23" d="M605.91,585.65h6.7c3.65,0,5.21,2.66,5.21,5.3s-1.56,5.31-5.21,5.31h-3.77v5.93h-2.93v-16.54ZM608.84,593.62h3.63c1.73,0,2.42-1.32,2.42-2.66s-.67-2.69-2.35-2.69h-3.7v5.35ZM626.03,590.69c.67,0,1.39.15,1.82.39l-.55,2.64c-.65-.33-1.23-.41-1.63-.41-1.82,0-2.83,1.82-2.83,4.97v3.91h-2.81v-11.21h2.78v2.4c.6-1.87,1.82-2.69,3.22-2.69ZM631.11,588.73c-.98,0-1.82-.74-1.82-1.7s.84-1.71,1.82-1.71,1.8.72,1.8,1.71-.79,1.7-1.8,1.7ZM632.5,602.19h-2.78v-11.21h2.78v11.21ZM649.32,590.69c2.81,0,4.3,1.94,4.3,5.21v6.29h-2.76v-6.14c0-1.8-.94-2.74-2.23-2.74-1.61,0-2.52,1.1-2.52,3.34v5.54h-2.79v-6.14c0-1.78-.94-2.74-2.14-2.74-1.3,0-2.59.77-2.59,2.9v5.98h-2.78v-11.21h2.78v1.73c.48-1.3,1.97-2.02,3.34-2.02,1.63,0,2.95.84,3.62,2.26.89-1.75,2.64-2.26,3.77-2.26ZM665.37,592.54v-1.56h2.79v11.21h-2.79v-1.75c-.74,1.22-2.23,2.04-3.84,2.04-3,0-5.4-2.42-5.4-5.9s2.3-5.88,5.47-5.88c1.53,0,3.02.67,3.77,1.85ZM662.11,599.89c1.73,0,3.21-1.44,3.21-3.31s-1.58-3.29-3.24-3.29c-1.8,0-3.17,1.49-3.17,3.29s1.37,3.31,3.19,3.31ZM677.48,590.69c.67,0,1.39.15,1.82.39l-.55,2.64c-.65-.33-1.23-.41-1.63-.41-1.82,0-2.83,1.82-2.83,4.97v3.91h-2.81v-11.21h2.78v2.4c.6-1.87,1.82-2.69,3.21-2.69ZM685.67,598.09l2.88-7.1h3l-6.96,16.68h-2.93l2.52-6.26-4.47-10.42h3.05l2.9,7.1Z"/>
    <path class="cls-9" d="M708.56,597.8v-3.2M708.56,591.4h0M716.56,594.6c0,4.42-3.58,8-8,8s-8-3.58-8-8,3.58-8,8-8,8,3.58,8,8Z"/>
  </g>
  <g id="Button">
    <g class="cls-18">
      <rect class="cls-20" x="719.9" y="786.68" width="480" height="50.42" rx="4.8" ry="4.8"/>
    </g>
  </g>
  <g id="trash">
    <path class="cls-6" d="M884.81,679.31h4.38M880.43,681.5h13.15M892.11,681.5l-.51,7.68c-.08,1.15-.12,1.73-.37,2.16-.22.38-.55.69-.95.89-.45.22-1.03.22-2.19.22h-2.21c-1.16,0-1.73,0-2.18-.22-.4-.19-.73-.5-.95-.89-.25-.44-.29-1.01-.36-2.16l-.51-7.68"/>
  </g>
  <g id="Confirm">
    <path class="cls-23" d="M935.23,817.43c-3.26,0-5.88-2.71-5.88-5.98s2.62-6,5.88-6c1.9,0,3.56.89,4.6,2.25l-1.54,1.18c-.71-.92-1.75-1.51-3.01-1.51-2.2,0-3.86,1.86-3.86,4.08s1.63,4.06,3.86,4.06c1.26,0,2.3-.59,3.01-1.51l1.54,1.18c-1.04,1.36-2.7,2.25-4.6,2.25ZM945.05,817.43c-2.23,0-4.16-1.65-4.16-4.13s1.93-4.11,4.16-4.11,4.18,1.63,4.18,4.11-1.95,4.13-4.18,4.13ZM945.05,815.62c1.21,0,2.22-.94,2.22-2.32s-1.01-2.3-2.22-2.3-2.2.96-2.2,2.3.99,2.32,2.2,2.32ZM955.45,809.18c2.01,0,3.14,1.36,3.14,3.65v4.4h-1.95v-4.27c0-1.26-.76-1.93-1.63-1.93s-2,.52-2,2.03v4.17h-1.95v-7.85h1.95v1.24c.4-.99,1.63-1.44,2.44-1.44ZM965.64,806.93h-.54c-1.33,0-1.71.74-1.7,1.7v.76h1.75v1.55h-1.75v6.3h-1.95v-6.3h-1.5v-1.55h1.5v-.65c0-2.25,1.08-3.61,3.26-3.61h.92v1.81ZM967.58,807.8c-.69,0-1.28-.52-1.28-1.19s.59-1.19,1.28-1.19,1.26.51,1.26,1.19-.55,1.19-1.26,1.19ZM968.55,817.23h-1.95v-7.85h1.95v7.85ZM975.07,809.18c.47,0,.98.1,1.28.27l-.38,1.85c-.45-.24-.86-.29-1.14-.29-1.28,0-1.98,1.28-1.98,3.48v2.74h-1.96v-7.85h1.95v1.68c.42-1.31,1.28-1.88,2.25-1.88ZM987.1,809.18c1.97,0,3.01,1.36,3.01,3.65v4.4h-1.93v-4.3c0-1.26-.65-1.92-1.56-1.92-1.13,0-1.76.77-1.76,2.34v3.88h-1.95v-4.3c0-1.24-.65-1.92-1.5-1.92-.91,0-1.82.54-1.82,2.03v4.18h-1.95v-7.85h1.95v1.21c.34-.91,1.38-1.41,2.34-1.41,1.14,0,2.07.59,2.54,1.58.62-1.23,1.85-1.58,2.64-1.58Z"/>
  </g>
</svg>